<svg width="256" height="361" viewBox="0 0 256 361" fill="none" xmlns="http://www.w3.org/2000/svg">
<path d="M36.0956 70.97C35.6512 55.6895 45.6056 41.5996 59.0625 41.5996H196.95C210.407 41.5996 220.361 55.6895 219.917 70.97C219.489 85.6474 220.044 104.661 224.046 120.164C228.06 135.715 234.829 145.543 245.916 146.808V161.128C234.829 162.391 228.06 172.22 224.046 187.772C220.044 203.275 219.489 222.289 219.917 236.966C220.361 252.246 210.407 266.334 196.95 266.334H59.0625C45.6056 266.334 35.6512 252.244 36.0956 236.966C36.5231 222.289 35.9681 203.275 31.965 187.772C27.9525 172.223 21.165 162.393 10.0781 161.128V146.808C21.165 145.545 27.9525 135.715 31.965 120.164C35.9681 104.661 36.5212 85.6474 36.0956 70.97Z" fill="url(#paint0_linear_2019_53)"/>
<g filter="url(#filter0_d_2019_53)">
<path d="M133.831 214.523C155.617 214.523 168.743 201.767 168.743 180.728C168.743 164.825 159.378 153.311 145.469 151.488V150.824C155.688 148.838 163.705 137.49 163.705 124.815C163.705 106.759 151.784 94.9961 133.617 94.9961H92.7422V214.523H133.831ZM108.638 110.156H129.787C141.28 110.156 147.811 116.283 147.811 127.384C147.811 139.228 140.217 145.856 126.451 145.856H108.638V110.156ZM108.638 199.365V160.02H129.644C144.687 160.02 152.493 166.645 152.493 179.567C152.493 192.489 144.901 199.365 130.567 199.365H108.638Z" fill="url(#paint1_linear_2019_53)"/>
<path d="M133.831 214.523C155.617 214.523 168.743 201.767 168.743 180.728C168.743 164.825 159.378 153.311 145.469 151.488V150.824C155.688 148.838 163.705 137.49 163.705 124.815C163.705 106.759 151.784 94.9961 133.617 94.9961H92.7422V214.523H133.831ZM108.638 110.156H129.787C141.28 110.156 147.811 116.283 147.811 127.384C147.811 139.228 140.217 145.856 126.451 145.856H108.638V110.156ZM108.638 199.365V160.02H129.644C144.687 160.02 152.493 166.645 152.493 179.567C152.493 192.489 144.901 199.365 130.567 199.365H108.638Z" fill="white"/>
</g>
<path d="M29.375 309.268V269.496H38.8381C41.7125 269.496 43.9944 270.337 45.68 272.021C47.3656 273.702 48.2075 275.893 48.2075 278.593C48.2075 280.851 47.6975 282.81 46.6775 284.474C45.6556 286.138 44.2494 287.321 42.455 288.023V288.135C44.6975 288.449 46.4919 289.465 47.8362 291.185C49.1806 292.887 49.8537 295.104 49.8537 297.842C49.8537 301.243 48.8338 303.999 46.7937 306.107C44.7519 308.214 42.1775 309.268 39.0688 309.268H29.375ZM33.2713 273.711V286.552H37.2613C39.395 286.552 41.0731 285.943 42.2938 284.723C43.5144 283.483 44.1256 281.743 44.1256 279.507C44.1256 275.644 41.9994 273.711 37.7469 273.711H33.2713ZM33.2713 290.741V305.053H38.5587C40.8462 305.053 42.6181 304.405 43.8706 303.111C45.1381 301.817 45.7719 300.041 45.7719 297.786C45.7719 293.088 43.0963 290.741 37.7469 290.741H33.2713ZM66.02 309.941C62.51 309.941 59.7031 308.618 57.6012 305.974C55.5144 303.313 54.47 299.79 54.47 295.407C54.47 290.638 55.5594 286.911 57.74 284.23C59.9206 281.55 62.8662 280.209 66.5769 280.209C70.1169 280.209 72.8769 281.512 74.8569 284.12C76.85 286.727 77.8475 290.342 77.8475 294.963C77.8475 299.494 76.7731 303.127 74.6225 305.864C72.4906 308.582 69.6219 309.941 66.02 309.941ZM66.2975 284.037C63.8544 284.037 61.9231 285.034 60.5 287.032C59.0769 289.01 58.3663 291.745 58.3663 295.241C58.3663 298.606 59.0844 301.261 60.5225 303.201C61.9606 305.145 63.8844 306.115 66.2975 306.115C68.7556 306.115 70.6438 305.163 71.9581 303.257C73.2875 301.353 73.9513 298.645 73.9513 295.131C73.9513 291.582 73.2875 288.844 71.9581 286.92C70.6438 284.999 68.7556 284.037 66.2975 284.037ZM93.8525 309.941C90.3425 309.941 87.5356 308.618 85.4338 305.974C83.3469 303.313 82.3025 299.79 82.3025 295.407C82.3025 290.638 83.3919 286.911 85.5725 284.23C87.7531 281.55 90.6988 280.209 94.4094 280.209C97.9494 280.209 100.709 281.512 102.689 284.12C104.684 286.727 105.682 290.342 105.682 294.963C105.682 299.494 104.608 303.127 102.457 305.864C100.323 308.582 97.4563 309.941 93.8525 309.941ZM94.13 284.037C91.6869 284.037 89.7556 285.034 88.3325 287.032C86.9094 289.01 86.1987 291.745 86.1987 295.241C86.1987 298.606 86.9169 301.261 88.355 303.201C89.7931 305.145 91.7169 306.115 94.13 306.115C96.5881 306.115 98.4763 305.163 99.7906 303.257C101.12 301.353 101.784 298.645 101.784 295.131C101.784 291.582 101.12 288.844 99.7906 286.92C98.4763 284.999 96.59 284.037 94.13 284.037ZM122.773 308.999C121.876 309.591 120.693 309.887 119.223 309.887C115.064 309.887 112.985 307.113 112.985 301.566V284.759H108.903V280.875H112.985V273.942L116.789 272.471V280.875H122.771V284.759H116.789V300.761C116.789 302.665 117.059 304.026 117.601 304.84C118.141 305.654 119.038 306.059 120.29 306.059C121.248 306.059 122.077 305.746 122.773 305.118V308.999ZM126.414 308.237V303.355C128.486 305.185 130.766 306.1 133.256 306.1C136.595 306.1 138.266 304.77 138.266 302.109C138.266 301.349 138.119 300.712 137.825 300.194C137.525 299.631 137.129 299.149 136.664 298.779C136.131 298.338 135.555 297.975 134.949 297.698C134.25 297.341 133.546 296.999 132.838 296.671C131.89 296.227 130.961 295.728 130.055 295.174C129.329 294.709 128.658 294.131 128.06 293.454C127.544 292.823 127.135 292.079 126.854 291.263C126.592 290.449 126.461 289.499 126.461 288.407C126.461 287.077 126.716 285.902 127.226 284.884C127.734 283.851 128.431 282.969 129.266 282.306C130.15 281.584 131.131 281.049 132.166 280.723C133.271 280.37 134.409 280.193 135.553 280.196C137.609 280.196 139.449 280.622 141.073 281.474V286.077C139.325 284.707 137.315 284.023 135.041 284.023C134.328 284.023 133.689 284.124 133.117 284.328C132.586 284.491 132.084 284.765 131.632 285.135C131.24 285.47 130.915 285.905 130.681 286.409C130.462 286.905 130.351 287.458 130.357 288.019C130.357 288.756 130.466 289.375 130.681 289.875C130.912 290.375 131.244 290.819 131.679 291.207C132.11 291.595 132.637 291.947 133.256 292.261C133.874 292.575 134.578 292.918 135.367 293.288C136.417 293.768 137.36 294.268 138.196 294.786C138.971 295.236 139.69 295.815 140.33 296.505C140.917 297.133 141.365 297.864 141.674 298.696C141.999 299.528 142.162 300.517 142.162 301.663C142.162 303.068 141.899 304.288 141.374 305.324C140.862 306.36 140.174 307.219 139.308 307.903C138.392 308.613 137.38 309.129 136.317 309.429C135.156 309.768 133.964 309.936 132.768 309.929C130.325 309.929 128.208 309.364 126.414 308.237ZM159.02 308.999C158.126 309.591 156.942 309.887 155.472 309.887C151.314 309.887 149.234 307.113 149.234 301.566V284.759H145.153V280.875H149.234V273.942L153.039 272.471V280.875H159.02V284.759H153.039V300.761C153.039 302.665 153.309 304.026 153.851 304.84C154.391 305.654 155.287 306.059 156.539 306.059C157.497 306.059 158.326 305.746 159.022 305.118L159.02 308.999ZM176.487 285.478C175.822 284.869 174.864 284.564 173.611 284.564C171.987 284.564 170.626 285.478 169.529 287.308C168.448 289.14 167.906 291.635 167.906 294.797V309.275H164.103V280.875H167.906V286.727H167.999C168.541 284.73 169.368 283.178 170.48 282.068C171.592 280.94 172.837 280.375 174.215 280.375C175.203 280.375 175.961 280.505 176.487 280.765V285.478ZM197.621 309.268H193.816V304.828H193.723C192.071 308.232 189.635 309.934 186.421 309.934C184.055 309.934 182.199 309.185 180.852 307.687C179.523 306.189 178.859 304.201 178.859 301.723C178.859 296.416 181.471 293.331 186.697 292.463L193.818 291.268C193.818 286.443 192.187 284.03 188.924 284.03C186.065 284.03 183.483 285.194 181.179 287.523V282.864C183.513 281.09 186.204 280.203 189.251 280.203C194.832 280.203 197.622 283.734 197.622 290.797L197.621 309.268ZM193.814 294.902L188.088 295.844C186.326 296.14 184.994 296.667 184.098 297.425C183.202 298.165 182.754 299.488 182.754 301.391C182.754 302.779 183.164 303.916 183.984 304.804C184.818 305.672 185.924 306.104 187.301 306.104C189.187 306.104 190.741 305.32 191.962 303.75C193.199 302.16 193.818 300.154 193.818 297.73L193.814 294.902ZM208.683 305.165H208.589V322.333H204.787V280.868H208.591V285.86H208.683C210.554 282.088 213.292 280.203 216.894 280.203C219.956 280.203 222.344 281.478 224.06 284.03C225.776 286.561 226.634 289.965 226.634 294.236C226.634 298.988 225.669 302.797 223.736 305.663C221.802 308.51 219.159 309.934 215.804 309.934C212.728 309.934 210.354 308.346 208.683 305.165ZM208.589 293.709V297.678C208.589 300.026 209.223 302.021 210.493 303.667C211.777 305.295 213.399 306.109 215.362 306.109C217.666 306.109 219.468 305.055 220.767 302.947C222.08 300.84 222.736 297.909 222.736 294.153C222.736 290.992 222.127 288.514 220.906 286.721C219.686 284.927 218.03 284.03 215.943 284.03C213.731 284.03 211.953 284.954 210.609 286.804C209.262 288.635 208.589 290.936 208.589 293.709Z" fill="#7952B3"/>
<defs>
<filter id="filter0_d_2019_53" x="88.8122" y="92.0491" width="83.86" height="127.387" filterUnits="userSpaceOnUse" color-interpolation-filters="sRGB">
<feFlood flood-opacity="0" result="BackgroundImageFix"/>
<feColorMatrix in="SourceAlpha" type="matrix" values="0 0 0 0 0 0 0 0 0 0 0 0 0 0 0 0 0 0 127 0" result="hardAlpha"/>
<feOffset dy="0.983"/>
<feGaussianBlur stdDeviation="1.965"/>
<feColorMatrix type="matrix" values="0 0 0 0 0 0 0 0 0 0 0 0 0 0 0 0 0 0 0.15 0"/>
<feBlend mode="normal" in2="BackgroundImageFix" result="effect1_dropShadow_2019_53"/>
<feBlend mode="normal" in="SourceGraphic" in2="effect1_dropShadow_2019_53" result="shape"/>
</filter>
<linearGradient id="paint0_linear_2019_53" x1="45.1237" y1="47.5481" x2="278.306" y2="202.338" gradientUnits="userSpaceOnUse">
<stop stop-color="#9013FE"/>
<stop offset="1" stop-color="#6610F2"/>
</linearGradient>
<linearGradient id="paint1_linear_2019_53" x1="99.9347" y1="102.862" x2="159.201" y2="186.683" gradientUnits="userSpaceOnUse">
<stop stop-color="white"/>
<stop offset="1" stop-color="#F1E5FC"/>
</linearGradient>
</defs>
</svg>
