<svg width="256" height="361" viewBox="0 0 256 361" fill="none" xmlns="http://www.w3.org/2000/svg">
<g clip-path="url(#clip0_2019_28)">
<g clip-path="url(#clip1_2019_28)">
<path d="M127.844 360.088L23.6623 331.166L0.445312 70.7656H255.555L232.314 331.126L127.844 360.088Z" fill="#264DE4"/>
<path d="M212.417 314.547L232.277 92.0566H128V337.95L212.417 314.547Z" fill="#2965F1"/>
<path d="M53.6661 188.635L56.5281 220.572H127.997V188.635H53.6661ZM47.9141 123.994L50.8171 155.931H127.997V123.994H47.9141ZM127.997 271.579L127.857 271.616L92.2891 262.012L90.0151 236.541H57.9551L62.4291 286.687L127.85 304.847L127.997 304.807V271.579Z" fill="#EBEBEB"/>
<path d="M60.4844 0H99.1644V16.176H76.6604V32.352H99.1664V48.527H60.4844V0ZM106.901 0H145.582V14.066H123.077V16.879H145.582V49.231H106.902V34.46H129.407V31.647H106.9L106.901 0ZM153.319 0H192V14.066H169.495V16.879H192V49.231H153.319V34.46H175.824V31.647H153.32V0H153.319Z" fill="black"/>
<path d="M202.129 188.635L207.894 123.994H127.892V155.931H172.894L169.988 188.635H127.892V220.572H167.219L163.511 261.992L127.891 271.606V304.832L193.364 286.687L193.844 281.291L201.35 197.211L202.129 188.635Z" fill="white"/>
</g>
</g>
<defs>
<clipPath id="clip0_2019_28">
<rect width="256" height="361" fill="white"/>
</clipPath>
<clipPath id="clip1_2019_28">
<rect width="256" height="361" fill="white"/>
</clipPath>
</defs>
</svg>
