<svg width="256" height="361" viewBox="0 0 256 361" fill="none" xmlns="http://www.w3.org/2000/svg">
<path d="M238.063 168.965L137.734 50.9864C131.96 44.192 122.589 44.192 116.806 50.9864L95.9746 75.488L122.402 106.566C128.545 104.127 135.586 105.763 140.481 111.519C145.402 117.312 146.781 125.662 144.657 132.91L170.127 162.864C176.289 160.366 183.401 161.98 188.319 167.777C195.2 175.862 195.2 188.969 188.319 197.058C186.684 198.982 184.742 200.508 182.606 201.549C180.469 202.591 178.178 203.127 175.865 203.127C173.552 203.127 171.262 202.591 169.125 201.549C166.988 200.508 165.047 198.982 163.412 197.058C160.955 194.168 159.28 190.487 158.599 186.479C157.917 182.472 158.258 178.317 159.58 174.537L135.829 146.606L135.825 220.117C137.548 221.115 139.121 222.437 140.483 224.03C147.36 232.115 147.36 245.218 140.483 253.32C133.604 261.406 122.455 261.406 115.583 253.32C108.706 245.22 108.706 232.118 115.583 224.03C117.231 222.09 119.19 220.554 121.348 219.514V145.322C119.189 144.284 117.228 142.747 115.583 140.803C110.373 134.681 109.119 125.69 111.791 118.163L85.7372 87.5247L16.9439 168.419C14.1685 171.684 12.6094 176.111 12.6094 180.728C12.6094 185.344 14.1685 189.771 16.9439 193.036L117.274 311.015C123.052 317.809 132.419 317.809 138.206 311.015L238.065 193.584C240.839 190.318 242.398 185.891 242.398 181.274C242.397 176.657 240.838 172.23 238.063 168.965Z" fill="#F34F29"/>
</svg>
