<svg width="256" height="361" viewBox="0 0 256 361" fill="none" xmlns="http://www.w3.org/2000/svg">
<g clip-path="url(#clip0_2019_78)">
<path fill-rule="evenodd" clip-rule="evenodd" d="M127.492 42.541C60.9417 42.541 6.96094 104.309 6.96094 180.499C6.96094 241.452 41.5016 293.161 89.4005 311.397C95.4276 312.676 97.6192 308.412 97.6192 304.75C97.6192 301.489 97.5206 292.81 97.4658 281.297C63.9333 289.624 56.8542 262.798 56.8542 262.798C51.3751 246.87 43.4741 242.606 43.4741 242.606C32.5267 234.065 44.296 234.228 44.296 234.228C56.4049 235.206 62.7608 248.45 62.7608 248.45C73.5109 269.52 90.9785 263.437 97.8493 259.913C98.9452 251.009 102.057 244.926 105.498 241.477C78.738 237.99 50.597 226.151 50.597 173.288C50.597 158.238 55.2872 145.909 63.0019 136.265C61.7526 132.778 57.6213 118.744 64.1854 99.7686C64.1854 99.7686 74.2999 96.0438 97.3343 113.903C107.167 110.839 117.312 109.279 127.503 109.263C137.698 109.271 147.846 110.831 157.682 113.903C180.694 96.0438 190.798 99.7561 190.798 99.7561C197.373 118.744 193.242 132.778 192.003 136.265C199.729 145.909 204.386 158.225 204.386 173.288C204.386 226.289 176.201 237.953 149.354 241.364C153.682 245.628 157.539 254.031 157.539 266.911C157.539 285.348 157.386 300.235 157.386 304.75C157.386 308.449 159.567 312.739 165.67 311.397C213.536 293.111 248.044 241.439 248.044 180.499C248.044 104.309 194.064 42.541 127.492 42.541Z" fill="black"/>
</g>
<defs>
<clipPath id="clip0_2019_78">
<rect width="256" height="361" fill="white"/>
</clipPath>
</defs>
</svg>
