<svg width="256" height="361" viewBox="0 0 256 361" fill="none" xmlns="http://www.w3.org/2000/svg">
<g clip-path="url(#clip0_2019_2)">
<g clip-path="url(#clip1_2019_2)">
<path d="M255.555 70.7656L232.314 331.126L127.844 360.088L23.6623 331.166L0.445312 70.7656H255.555Z" fill="#E44D26"/>
<path d="M128 337.95L212.417 314.547L232.277 92.0566H128V337.95Z" fill="#F16529"/>
<path d="M82.8171 155.931H127.997V123.994H47.9141L48.6781 132.562L56.5281 220.572H127.997V188.635H85.7361L82.8171 155.931ZM90.0151 236.541H57.9551L62.4291 286.687L127.85 304.847L127.997 304.807V271.579L127.857 271.616L92.2891 262.012L90.0151 236.541Z" fill="#EBEBEB"/>
<path d="M24.1797 0H40.4097V16.035H55.2567V0H71.4877V48.558H55.2577V32.298H40.4107V48.558H24.1807L24.1797 0ZM92.8297 16.103H78.5437V0H123.358V16.103H109.063V48.558H92.8327V16.103H92.8297ZM130.47 0H147.393L157.803 17.062L168.203 0H185.133V48.558H168.969V24.49L157.803 41.755H157.523L146.35 24.49V48.558H130.47V0ZM193.21 0H209.445V32.508H232.269V48.558H193.209V0H193.21Z" fill="black"/>
<path d="M127.892 220.572H167.219L163.511 261.992L127.891 271.606V304.832L193.364 286.687L193.844 281.291L201.35 197.211L202.129 188.635H127.892V220.572ZM127.892 155.853V155.931H205.035L205.675 148.753L207.131 132.562L207.894 123.994H127.892V155.853Z" fill="white"/>
</g>
</g>
<defs>
<clipPath id="clip0_2019_2">
<rect width="256" height="361" fill="white"/>
</clipPath>
<clipPath id="clip1_2019_2">
<rect width="256" height="361" fill="white"/>
</clipPath>
</defs>
</svg>
