<svg width="907" height="354" viewBox="0 0 907 354" fill="none" xmlns="http://www.w3.org/2000/svg">
<g clip-path="url(#clip0_301_334)">
<g clip-path="url(#clip1_301_334)">
<path d="M33.3206 224.987L109.64 313.438C113.641 318.076 118.463 313.829 120.41 303.955L123.937 286.075C125.884 276.201 124.218 264.437 120.216 259.799L65.7911 196.73L121.066 134.372C125.119 129.8 126.938 118.09 125.128 108.216L121.853 90.3397C120.044 80.4648 115.292 76.1665 111.238 80.7383L33.6984 168.202C32.3016 169.777 31.1118 172.291 30.2686 175.448C29.4255 178.605 28.9642 182.274 28.9388 186.024L28.7977 207.096C28.7488 214.761 30.51 221.736 33.3206 224.987V224.987Z" fill="white"/>
</g>
<g clip-path="url(#clip2_301_334)">
<path d="M382.056 169.143L302.628 82.0892C298.464 77.5244 293.623 81.8576 291.815 91.7656L288.541 109.706C286.733 119.614 288.645 131.346 292.809 135.911L349.451 197.983L294.204 261.333C290.152 265.977 288.509 277.718 290.532 287.559L294.195 305.372C296.218 315.213 301.142 319.424 305.193 314.78L382.695 225.926C384.091 224.325 385.259 221.79 386.062 218.619C386.865 215.447 387.269 211.77 387.228 208.02L386.992 186.948C386.903 179.284 384.981 172.342 382.056 169.143V169.143Z" fill="white"/>
</g>
<line x1="142.686" y1="165.873" x2="210.686" y2="123.873" stroke="white" stroke-width="5"/>
<line x1="209.5" y1="124" x2="209.5" y2="90" stroke="white" stroke-width="5"/>
<line x1="145.38" y1="81.5291" x2="210.38" y2="91.5291" stroke="white" stroke-width="5"/>
<line x1="141.94" y1="273.683" x2="210.94" y2="301.683" stroke="white" stroke-width="5"/>
<line x1="137.89" y1="301.664" x2="179.89" y2="317.664" stroke="white" stroke-width="5"/>
<line x1="178.959" y1="317.5" x2="239.959" y2="316.5" stroke="white" stroke-width="5"/>
<line x1="238.103" y1="316.667" x2="277.103" y2="301.667" stroke="white" stroke-width="5"/>
<line x1="208.868" y1="301.771" x2="271.868" y2="269.771" stroke="white" stroke-width="5"/>
<line x1="208.493" y1="91.5518" x2="266.493" y2="79.5518" stroke="white" stroke-width="5"/>
<line x1="207.45" y1="123.963" x2="266.45" y2="165.963" stroke="white" stroke-width="5"/>
<line x1="270.504" y1="272.137" x2="264.504" y2="163.137" stroke="white" stroke-width="5"/>
<line x1="141.5" y1="271.953" x2="143.5" y2="164.953" stroke="white" stroke-width="5"/>
<line x1="268.786" y1="269.185" x2="205.786" y2="234.185" stroke="white" stroke-width="5"/>
<line x1="209.5" y1="237" x2="209.5" y2="124" stroke="white" stroke-width="5"/>
<line x1="209.254" y1="234.163" x2="140.254" y2="274.163" stroke="white" stroke-width="5"/>
<path d="M124 141L149 126L178.5 141L151 158L124 141Z" fill="white"/>
<path d="M124 141L149 126L178.5 141L151 158L124 141Z" fill="white"/>
<path d="M237 142L262 127L291.5 142L262 160L237 142Z" fill="white"/>
<path d="M237 142L262 127L291.5 142L262 160L237 142Z" fill="white"/>
<path d="M185 251L216 271.5L242.5 250L235 246L214.5 234L193.5 246L185 251Z" fill="white"/>
<path d="M185 251L216 271.5L242.5 250L235 246L214.5 234L193.5 246L185 251Z" fill="white"/>
<path d="M30.0105 73.3494L43.4371 37.5411L90.2833 39.4606L110.491 75.3341L60.6926 131.393L30.0105 73.3494Z" fill="white"/>
<path d="M322.109 40.4047L369.553 35.7574L378.915 57.5883L386.17 76.1321L357.017 135.976L301.64 75.1327L322.109 40.4047Z" fill="white"/>
<path d="M467.776 126.678V200.579C467.776 206.878 467.508 212.42 466.971 217.205C466.482 221.99 465.433 226.238 463.821 229.949C462.942 231.902 461.844 233.831 460.525 235.735C459.207 237.64 457.547 239.495 455.545 241.302C453.592 243.157 451.272 244.964 448.587 246.722C445.95 248.479 442.85 250.237 439.285 251.995L431.082 240.716C433.67 238.421 435.965 236.297 437.967 234.344C440.018 232.439 441.751 230.267 443.167 227.825C444.534 225.384 445.56 222.479 446.243 219.109C446.976 215.74 447.342 211.492 447.342 206.365V126.678H467.776ZM556.619 126.678V141.692H514.065V165.569H544.168V180.584H514.065V216.985H558.157V232H493.631V126.678H556.619ZM669.778 126.678L632.352 232.146H613.382L575.882 126.678H596.902L622.903 209.368L648.758 126.678H669.778ZM766.458 229.07C762.112 230.486 757.327 231.609 752.103 232.439C746.927 233.318 741.653 233.758 736.282 233.758C727.151 233.758 719.412 232.708 713.064 230.608C706.766 228.46 701.639 225.213 697.684 220.867C693.729 216.473 690.872 210.979 689.114 204.388C687.356 197.747 686.478 189.935 686.478 180.95C686.478 171.575 687.332 163.396 689.041 156.414C690.799 149.432 693.558 143.621 697.317 138.982C701.077 134.344 705.911 130.877 711.819 128.582C717.776 126.238 724.979 125.066 733.426 125.066C736.404 125.066 739.334 125.213 742.215 125.506C745.145 125.799 747.903 126.189 750.491 126.678C753.128 127.166 755.569 127.728 757.815 128.362C760.11 128.997 762.137 129.656 763.895 130.34L759.061 145.062C755.594 143.792 751.883 142.693 747.928 141.766C744.021 140.789 739.896 140.301 735.55 140.301C730.325 140.301 725.906 141.082 722.293 142.645C718.68 144.207 715.75 146.575 713.504 149.749C711.307 152.923 709.72 156.927 708.743 161.761C707.767 166.595 707.278 172.259 707.278 178.753C707.278 185.687 707.815 191.668 708.89 196.697C709.964 201.678 711.697 205.804 714.09 209.075C716.482 212.298 719.607 214.69 723.465 216.253C727.371 217.767 732.107 218.523 737.674 218.523C741.922 218.523 746.17 218.133 750.418 217.352C754.715 216.57 758.694 215.569 762.356 214.349L766.458 229.07ZM874.783 126.678V232H852.151L806.082 153.265V232H785.647V126.678H808.279L854.349 205.413V126.678H874.783Z" fill="white"/>
</g>
<defs>
<clipPath id="clip0_301_334">
<rect width="907" height="354" fill="white"/>
</clipPath>
<clipPath id="clip1_301_334">
<rect width="88.235" height="315.206" fill="white" transform="translate(124.233 354.79) rotate(-179.616)"/>
</clipPath>
<clipPath id="clip2_301_334">
<rect width="90" height="315.206" fill="white" transform="translate(287 41.0078) rotate(-0.641622)"/>
</clipPath>
</defs>
</svg>
