<svg width="256" height="361" viewBox="0 0 256 361" fill="none" xmlns="http://www.w3.org/2000/svg">
<g clip-path="url(#clip0_2019_9)">
<path d="M0 52H256V308H0V52Z" fill="#F7DF1E"/>
<path d="M67.3135 265.931L86.9035 254.075C90.6835 260.776 94.1215 266.446 102.368 266.446C110.273 266.446 115.259 263.354 115.259 251.326V169.528H139.315V251.666C139.315 276.583 124.71 287.925 103.4 287.925C84.1545 287.925 72.9835 277.958 67.3125 265.929M152.382 263.353L171.97 252.012C177.127 260.433 183.83 266.619 195.686 266.619C205.655 266.619 212.01 261.635 212.01 254.761C212.01 246.513 205.481 243.591 194.483 238.781L188.47 236.201C171.113 228.814 159.6 219.534 159.6 199.944C159.6 181.9 173.347 168.152 194.828 168.152C210.122 168.152 221.119 173.48 229.023 187.399L210.292 199.429C206.167 192.04 201.701 189.119 194.826 189.119C187.78 189.119 183.313 193.587 183.313 199.429C183.313 206.646 187.781 209.569 198.091 214.037L204.104 216.614C224.554 225.379 236.068 234.314 236.068 254.418C236.068 276.072 219.056 287.928 196.201 287.928C173.861 287.928 159.427 277.274 152.382 263.354" fill="black"/>
</g>
<defs>
<clipPath id="clip0_2019_9">
<rect width="256" height="256" fill="white" transform="translate(0 52)"/>
</clipPath>
</defs>
</svg>
