<svg width="256" height="361" viewBox="0 0 256 361" fill="none" xmlns="http://www.w3.org/2000/svg">
<g clip-path="url(#clip0_2019_19)">
<path d="M128 286.372C198.692 286.372 256 239.055 256 180.686C256 122.317 198.692 75 128 75C57.3075 75 0 122.317 0 180.686C0 239.055 57.3075 286.372 128 286.372Z" fill="url(#paint0_radial_2019_19)"/>
<path d="M128 278.52C195.931 278.52 251 234.718 251 180.686C251 126.653 195.931 82.8516 128 82.8516C60.069 82.8516 5 126.653 5 180.686C5 234.718 60.069 278.52 128 278.52Z" fill="#6181B6"/>
<path d="M152.897 212.408L158.997 163.098C160.397 151.948 159.197 143.625 155.597 138.443C152.097 133.418 146.097 130.905 137.297 130.905H126.697L129.697 106.408C129.797 105.465 129.697 104.523 129.297 103.738C128.897 102.953 128.397 102.639 127.797 102.639H113.197C112.197 102.639 111.397 103.738 111.197 105.151L104.697 157.445C104.097 151.477 102.697 146.452 100.297 142.369C95.997 134.674 89.297 130.748 80.197 130.748H52.097C51.097 130.748 50.297 131.848 50.097 133.261L36.997 239.418C36.897 240.36 36.997 241.302 37.397 242.088C37.797 242.873 38.297 243.187 38.897 243.187H53.597C54.597 243.187 55.397 242.088 55.597 240.674L58.797 215.077H69.697C75.397 215.077 80.297 214.135 83.997 212.251C87.897 210.209 91.397 206.911 94.497 202.357C96.997 198.745 99.097 194.662 100.697 190.265L98.097 211.465C97.997 212.408 98.097 213.35 98.497 214.135C98.897 214.92 99.397 215.234 99.997 215.234H114.597C115.597 215.234 116.397 214.135 116.597 212.722L123.797 154.618H133.797C138.097 154.618 139.297 155.874 139.697 156.502C139.997 156.973 140.597 158.858 139.897 164.668L134.097 211.622C133.997 212.565 134.097 213.507 134.497 214.292C134.897 215.077 135.397 215.391 135.997 215.391H150.997C151.897 214.92 152.697 213.821 152.897 212.408ZM85.297 171.578C84.397 178.959 82.697 184.298 80.197 187.282C77.697 190.265 73.597 191.836 68.197 191.836H61.697L66.397 153.833H74.797C80.997 153.833 83.497 155.874 84.497 157.602C85.797 160.114 86.097 164.982 85.297 171.578ZM215.297 142.369C210.997 134.674 204.297 130.748 195.197 130.748H166.897C165.897 130.748 165.097 131.848 164.897 133.261L151.797 239.261C151.697 240.203 151.797 241.145 152.197 241.931C152.597 242.716 153.097 243.03 153.697 243.03H168.397C169.397 243.03 170.197 241.931 170.397 240.517L173.597 214.92H184.497C190.197 214.92 195.097 213.978 198.797 212.093C202.697 210.052 206.197 206.754 209.297 202.2C211.897 198.431 214.097 194.191 215.697 189.637C217.297 185.083 218.497 180.058 219.197 174.562C220.897 160.899 219.597 150.221 215.297 142.369ZM199.997 171.578C199.097 178.959 197.397 184.298 194.897 187.282C192.397 190.265 188.297 191.836 182.897 191.836H176.397L181.097 153.833H189.497C195.697 153.833 198.197 155.874 199.197 157.602C200.597 160.114 200.897 164.982 199.997 171.578Z" fill="white"/>
<path d="M74.8 150.692C80.4 150.692 84.1 152.262 86 155.56C87.9 158.858 88.3 164.354 87.3 172.206C86.3 180.372 84.3 186.339 81.4 189.794C78.5 193.249 74.1 194.976 68.2 194.976H59.3L64.8 150.692H74.8ZM39 239.889H53.7L57.2 211.779H69.8C75.4 211.779 79.9 210.837 83.5 208.953C87.1 207.068 90.3 204.084 93.3 199.687C95.8 196.076 97.8 192.15 99.3 187.91C100.8 183.67 101.9 178.959 102.5 173.776C104.1 161.213 102.9 151.477 99 144.41C95.1 137.344 88.9 133.889 80.4 133.889H52.1L39 239.889ZM113.3 105.779H127.9L124.4 133.889H137.4C145.6 133.889 151.2 136.087 154.3 140.642C157.4 145.196 158.3 152.419 157.1 162.47L151 211.779H136.2L142 164.825C142.7 159.486 142.4 155.874 141.3 153.99C140.2 152.105 137.7 151.006 134 151.006H122.3L114.8 211.779H100.2L113.3 105.779ZM189.5 150.692C195.1 150.692 198.8 152.262 200.7 155.56C202.6 158.858 203 164.354 202 172.206C201 180.372 199 186.339 196.1 189.794C193.2 193.249 188.8 194.976 182.9 194.976H174L179.5 150.692H189.5ZM153.7 239.889H168.4L171.9 211.779H184.5C190.1 211.779 194.6 210.837 198.2 208.953C201.8 207.068 205 204.084 208 199.687C210.5 196.076 212.5 192.15 214 187.91C215.5 183.67 216.6 178.959 217.2 173.776C218.8 161.213 217.6 151.477 213.7 144.41C209.8 137.344 203.6 133.889 195.1 133.889H166.8L153.7 239.889Z" fill="#000004"/>
</g>
<defs>
<radialGradient id="paint0_radial_2019_19" cx="0" cy="0" r="1" gradientUnits="userSpaceOnUse" gradientTransform="translate(76.8515 112.167) scale(168.095 263.972)">
<stop stop-color="white"/>
<stop offset="0.5" stop-color="#4C6B97"/>
<stop offset="1" stop-color="#231F20"/>
</radialGradient>
<clipPath id="clip0_2019_19">
<rect width="256" height="212" fill="white" transform="translate(0 75)"/>
</clipPath>
</defs>
</svg>
